<svg xmlns="http://www.w3.org/2000/svg" class="ionicon" viewBox="0 0 512 512" fill="#fff">
    <g transform="translate(20, 0)">
        <path
            d="M349.33 69.33a93.62 93.62 0 0193.34 93.34v186.66a93.62 93.62 0 01-93.34 93.34H162.67a93.62 93.62 0 01-93.34-93.34V162.67a93.62 93.62 0 0193.34-93.34h186.66m0-37.33H162.67C90.8 32 32 90.8 32 162.67v186.66C32 421.2 90.8 480 162.67 480h186.66C421.2 480 480 421.2 480 349.33V162.67C480 90.8 421.2 32 349.33 32z" />
        <path
            d="M164.59 182.48h53.91v209.7h-53.91zM191.55 154.68a27.26 27.26 0 1127.27-27.26 27.26 27.26 0 01-27.27 27.26zM288.36 182.48h51.61v28.62h.73c7.19-13.62 24.75-27.95 50.89-27.95 54.42 0 64.48 35.82 64.48 82.38v126.65h-53.9v-112.1c0-26.68-.48-61.03-37.14-61.03-37.22 0-42.91 29.08-42.91 59.1v113.96h-53.76z" />
    </g>
</svg>